HIERARCHY
ROOT Hips
{
	OFFSET 0.000000 100.481300 0.000000
	CHANNELS 6 Xposition Yposition Zposition Xrotation Yrotation Zrotation 
	JOINT Spine
	{
		OFFSET -0.279200 12.230698 -2.892100
		CHANNELS 3 Xrotation Yrotation Zrotation
		JOINT Spine1
		{
			OFFSET -0.232667 10.192268 -1.242267
			CHANNELS 3 Xrotation Yrotation Zrotation
			JOINT Spine1_split
			{
				OFFSET -0.232667 10.192268 -1.242267
				CHANNELS 3 Xrotation Yrotation Zrotation
				JOINT Spine2
				{
					OFFSET -0.232667 10.192268 -1.242267
					CHANNELS 3 Xrotation Yrotation Zrotation
					JOINT Neck
					{
						OFFSET -0.418800 17.814194 8.416900
						CHANNELS 3 Xrotation Yrotation Zrotation
						JOINT Head
						{
							OFFSET 0.000000 7.031097 3.806800
							CHANNELS 3 Xrotation Yrotation Zrotation
							JOINT HeadTop_End
							{
								OFFSET 0.000000 24.646606 12.978600
								CHANNELS 3 Xrotation Yrotation Zrotation
								End Site
								{
									OFFSET 0.000000 0.000000 0.000000
								}
							}
						}
					}
					JOINT LeftShoulder
					{
						OFFSET 8.476499 7.247704 -3.868750
						CHANNELS 3 Xrotation Yrotation Zrotation
						JOINT LeftShoulder_split
						{
							OFFSET 8.476499 7.247704 -3.868750
							CHANNELS 3 Xrotation Yrotation Zrotation
							JOINT LeftArm
							{
								OFFSET 9.308998 -2.777710 0.208600
								CHANNELS 3 Xrotation Yrotation Zrotation
								JOINT LeftForeArm
								{
									OFFSET 29.972298 0.000000 0.000000
									CHANNELS 3 Xrotation Yrotation Zrotation
									JOINT LeftHand
									{
										OFFSET 26.026505 0.000000 0.000000
										CHANNELS 3 Xrotation Yrotation Zrotation
										JOINT LeftHandThumb1
										{
											OFFSET 12.240501 -7.147949 9.207150
											CHANNELS 3 Xrotation Yrotation Zrotation
											JOINT LeftHandThumb2
											{
												OFFSET 4.138618 -2.389435 2.389433
												CHANNELS 3 Xrotation Yrotation Zrotation
												JOINT LeftHandThumb3
												{
													OFFSET 2.726913 -1.574387 1.574386
													CHANNELS 3 Xrotation Yrotation Zrotation
													JOINT LeftHandThumb4
													{
														OFFSET 3.941010 -2.275345 2.275342
														CHANNELS 3 Xrotation Yrotation Zrotation
														End Site
														{
															OFFSET 0.000000 0.000000 0.000000
														}
													}
												}
											}
										}
										JOINT LeftHandIndex1
										{
											OFFSET 24.424698 -1.985611 5.953459
											CHANNELS 3 Xrotation Yrotation Zrotation
											JOINT LeftHandIndex2
											{
												OFFSET 6.426697 0.000000 0.000000
												CHANNELS 3 Xrotation Yrotation Zrotation
												JOINT LeftHandIndex3
												{
													OFFSET 5.337898 0.000000 0.000000
													CHANNELS 3 Xrotation Yrotation Zrotation
													JOINT LeftHandIndex4
													{
														OFFSET 4.409401 0.000000 0.000000
														CHANNELS 3 Xrotation Yrotation Zrotation
														End Site
														{
															OFFSET 0.000000 0.000000 0.000000
														}
													}
												}
											}
										}
										JOINT LeftHandMiddle1
										{
											OFFSET 23.810104 0.000000 0.000000
											CHANNELS 3 Xrotation Yrotation Zrotation
											JOINT LeftHandMiddle2
											{
												OFFSET 7.176498 0.000000 0.000000
												CHANNELS 3 Xrotation Yrotation Zrotation
												JOINT LeftHandMiddle3
												{
													OFFSET 6.774902 0.000000 0.000000
													CHANNELS 3 Xrotation Yrotation Zrotation
													JOINT LeftHandMiddle4
													{
														OFFSET 5.403328 0.000000 0.000000
														CHANNELS 3 Xrotation Yrotation Zrotation
														End Site
														{
															OFFSET 0.000000 0.000000 0.000000
														}
													}
												}
											}
										}
										JOINT LeftHandRing1
										{
											OFFSET 22.908401 -0.839279 -6.020567
											CHANNELS 3 Xrotation Yrotation Zrotation
											JOINT LeftHandRing2
											{
												OFFSET 6.337502 0.000000 0.000000
												CHANNELS 3 Xrotation Yrotation Zrotation
												JOINT LeftHandRing3
												{
													OFFSET 5.779297 0.000000 0.000000
													CHANNELS 3 Xrotation Yrotation Zrotation
													JOINT LeftHandRing4
													{
														OFFSET 4.965698 0.000000 0.000000
														CHANNELS 3 Xrotation Yrotation Zrotation
														End Site
														{
															OFFSET 0.000000 0.000000 0.000000
														}
													}
												}
											}
										}
										JOINT LeftHandPinky1
										{
											OFFSET 20.037003 -1.530319 -10.950146
											CHANNELS 3 Xrotation Yrotation Zrotation
											JOINT LeftHandPinky2
											{
												OFFSET 5.254700 0.000000 0.000000
												CHANNELS 3 Xrotation Yrotation Zrotation
												JOINT LeftHandPinky3
												{
													OFFSET 4.810204 0.000000 0.000000
													CHANNELS 3 Xrotation Yrotation Zrotation
													JOINT LeftHandPinky4
													{
														OFFSET 3.647202 0.000000 0.000000
														CHANNELS 3 Xrotation Yrotation Zrotation
														End Site
														{
															OFFSET 0.000000 0.000000 0.000000
														}
													}
												}
											}
										}
									}
								}
							}
						}
					}
					JOINT RightShoulder
					{
						OFFSET -7.570500 7.247704 -3.868750
						CHANNELS 3 Xrotation Yrotation Zrotation
						JOINT RightShoulder_split
						{
							OFFSET -7.570500 7.247704 -3.868750
							CHANNELS 3 Xrotation Yrotation Zrotation
							JOINT RightArm
							{
								OFFSET -9.308998 -2.777710 0.208500
								CHANNELS 3 Xrotation Yrotation Zrotation
								JOINT RightForeArm
								{
									OFFSET -29.972300 0.000000 0.000000
									CHANNELS 3 Xrotation Yrotation Zrotation
									JOINT RightHand
									{
										OFFSET -26.026505 0.000000 0.000000
										CHANNELS 3 Xrotation Yrotation Zrotation
										JOINT RightHandThumb1
										{
											OFFSET -12.240601 -7.148026 9.207092
											CHANNELS 3 Xrotation Yrotation Zrotation
											JOINT RightHandThumb2
											{
												OFFSET -4.138618 -2.389435 2.389433
												CHANNELS 3 Xrotation Yrotation Zrotation
												JOINT RightHandThumb3
												{
													OFFSET -2.726974 -1.574417 1.574421
													CHANNELS 3 Xrotation Yrotation Zrotation
													JOINT RightHandThumb4
													{
														OFFSET -3.941010 -2.275345 2.275343
														CHANNELS 3 Xrotation Yrotation Zrotation
														End Site
														{
															OFFSET 0.000000 0.000000 0.000000
														}
													}
												}
											}
										}
										JOINT RightHandIndex1
										{
											OFFSET -24.424698 -1.985657 5.953444
											CHANNELS 3 Xrotation Yrotation Zrotation
											JOINT RightHandIndex2
											{
												OFFSET -6.426697 0.000000 0.000000
												CHANNELS 3 Xrotation Yrotation Zrotation
												JOINT RightHandIndex3
												{
													OFFSET -5.337898 0.000000 0.000000
													CHANNELS 3 Xrotation Yrotation Zrotation
													JOINT RightHandIndex4
													{
														OFFSET -4.409401 0.000000 0.000000
														CHANNELS 3 Xrotation Yrotation Zrotation
														End Site
														{
															OFFSET 0.000000 0.000000 0.000000
														}
													}
												}
											}
										}
										JOINT RightHandMiddle1
										{
											OFFSET -23.810097 0.000000 0.000000
											CHANNELS 3 Xrotation Yrotation Zrotation
											JOINT RightHandMiddle2
											{
												OFFSET -7.176498 0.000000 0.000000
												CHANNELS 3 Xrotation Yrotation Zrotation
												JOINT RightHandMiddle3
												{
													OFFSET -6.774902 0.000000 0.000000
													CHANNELS 3 Xrotation Yrotation Zrotation
													JOINT RightHandMiddle4
													{
														OFFSET -5.403328 0.000000 0.000000
														CHANNELS 3 Xrotation Yrotation Zrotation
														End Site
														{
															OFFSET 0.000000 0.000000 0.000000
														}
													}
												}
											}
										}
										JOINT RightHandRing1
										{
											OFFSET -22.908302 -0.839325 -6.020576
											CHANNELS 3 Xrotation Yrotation Zrotation
											JOINT RightHandRing2
											{
												OFFSET -6.337502 0.000000 0.000000
												CHANNELS 3 Xrotation Yrotation Zrotation
												JOINT RightHandRing3
												{
													OFFSET -5.779297 0.000000 0.000000
													CHANNELS 3 Xrotation Yrotation Zrotation
													JOINT RightHandRing4
													{
														OFFSET -4.965698 0.000000 0.000000
														CHANNELS 3 Xrotation Yrotation Zrotation
														End Site
														{
															OFFSET 0.000000 0.000000 0.000000
														}
													}
												}
											}
										}
										JOINT RightHandPinky1
										{
											OFFSET -20.037003 -1.530334 -10.950259
											CHANNELS 3 Xrotation Yrotation Zrotation
											JOINT RightHandPinky2
											{
												OFFSET -5.254700 0.000000 0.000000
												CHANNELS 3 Xrotation Yrotation Zrotation
												JOINT RightHandPinky3
												{
													OFFSET -4.810204 0.000000 0.000000
													CHANNELS 3 Xrotation Yrotation Zrotation
													JOINT RightHandPinky4
													{
														OFFSET -3.647202 0.000000 0.000000
														CHANNELS 3 Xrotation Yrotation Zrotation
														End Site
														{
															OFFSET 0.000000 0.000000 0.000000
														}
													}
												}
											}
										}
									}
								}
							}
						}
					}
				}
			}
		}
	}
	JOINT LeftUpLeg
	{
		OFFSET 15.427100 -6.655098 0.678600
		CHANNELS 3 Xrotation Yrotation Zrotation
		JOINT LeftLeg
		{
			OFFSET 4.081073 -39.591068 13.024000
			CHANNELS 3 Xrotation Yrotation Zrotation
			JOINT LeftFoot
			{
				OFFSET -4.081074 -37.707932 -15.979700
				CHANNELS 3 Xrotation Yrotation Zrotation
				JOINT LeftToeBase
				{
					OFFSET 5.346399 -15.068900 20.645000
					CHANNELS 3 Xrotation Yrotation Zrotation
					JOINT LeftToe_End
					{
						OFFSET 2.754700 0.931300 11.300900
						CHANNELS 3 Xrotation Yrotation Zrotation
						End Site
						{
							OFFSET 0.000000 0.000000 0.000000
						}
					}
				}
			}
		}
	}
	JOINT RightUpLeg
	{
		OFFSET -15.569500 -6.655098 0.678600
		CHANNELS 3 Xrotation Yrotation Zrotation
		JOINT RightLeg
		{
			OFFSET -4.081825 -39.591045 13.023800
			CHANNELS 3 Xrotation Yrotation Zrotation
			JOINT RightFoot
			{
				OFFSET 4.081824 -37.707954 -15.979600
				CHANNELS 3 Xrotation Yrotation Zrotation
				JOINT RightToeBase
				{
					OFFSET -5.346400 -15.068900 20.645000
					CHANNELS 3 Xrotation Yrotation Zrotation
					JOINT RightToe_End
					{
						OFFSET -2.754700 0.931300 11.300900
						CHANNELS 3 Xrotation Yrotation Zrotation
						End Site
						{
							OFFSET 0.000000 0.000000 0.000000
						}
					}
				}
			}
		}
	}
}
MOTION
Frames: 5
Frame Time: 0.016667
9.263077 60.626610 52.870583 -14.861578 -43.319850 -8.800972 23.038824 6.982459 -10.334041 0.646537 0.929548 0.134782 0.000000 0.000000 0.000000 0.636328 0.960694 0.115374 4.340619 13.104375 0.961784 1.464763 20.711691 -6.151116 -0.000001 -0.000000 -0.000000 0.727743 3.027002 -7.324549 0.000000 0.000000 0.000000 -54.688604 2.382185 -44.353459 0.000038 -113.998555 0.000035 -8.744108 -11.473586 -10.700545 -6.141222 -11.690797 -6.761688 9.914113 42.595519 3.409859 -0.422807 8.108091 27.509111 0.000000 -0.000003 0.000000 0.255306 3.378220 -45.814337 5.654092 5.847762 -88.067441 2.162141 4.544810 -50.866372 0.000001 0.000000 0.000000 -0.461473 3.841596 -39.722679 6.450749 5.820353 -95.892878 2.182897 4.561572 -51.127736 -0.000000 0.000001 -0.000003 0.469728 4.966829 -39.799434 8.181038 5.368615 -113.503004 3.200489 5.218117 -63.022975 0.000001 0.000000 -0.000001 -3.762435 9.063688 -45.253818 5.342536 5.828997 -85.005304 8.716831 5.103323 -119.369194 0.000000 -0.000000 -0.000000 2.812982 13.874459 -5.932526 0.000000 0.000000 0.000000 -45.155835 21.957427 84.432954 -0.000025 114.502562 0.000011 1.729107 20.759633 7.523815 -7.341105 13.749657 7.412322 9.855810 -44.489083 -3.903249 -0.115781 -14.513080 -28.973867 -0.000000 -0.000003 0.000002 -0.124380 -2.384789 45.108864 4.500590 -4.654543 88.071164 1.723219 -3.618376 50.920102 0.000000 0.000001 0.000001 -0.761622 -2.932900 39.031058 5.133886 -4.632757 95.881663 1.739742 -3.631704 51.181350 -0.000001 0.000001 -0.000002 0.154764 -4.068812 39.122664 6.509724 -4.273596 113.462891 2.549578 -4.153931 63.067330 0.000000 -0.000001 -0.000001 -4.198870 -8.025506 44.637779 4.252925 -4.639635 85.014839 6.935961 -4.062624 119.322271 0.000000 0.000000 -0.000000 -47.760835 -6.502656 35.029288 52.904425 -9.501210 4.992864 4.462606 -9.306399 -30.982103 1.177161 0.000009 -0.000007 -0.000000 0.000000 -0.000000 -21.171216 -1.372187 -46.995916 76.214707 16.856485 -7.152665 -15.815890 -13.172029 20.434739 -14.018838 -0.104836 3.486787 -0.000000 -0.000001 0.000000 
8.776102 61.503143 51.120789 -14.043461 -43.272865 -7.626946 21.282147 7.658989 -9.367261 1.010367 1.004085 -0.234457 0.000000 0.000000 0.000000 1.004581 1.022896 -0.248461 4.766930 13.065347 0.442460 1.896270 20.295893 -6.198561 0.000000 -0.000000 0.000000 0.722452 3.377174 -7.482015 0.000000 0.000000 0.000000 -53.816082 2.392652 -44.340601 0.000039 -114.488532 0.000033 -8.831645 -10.561578 -10.712633 -6.141222 -11.690797 -6.761689 9.914121 42.595519 3.409863 -0.422803 8.108089 27.509111 -0.000001 0.000002 -0.000002 0.255306 3.378219 -45.814337 5.654091 5.847761 -88.067441 2.162140 4.544811 -50.866376 0.000000 0.000001 -0.000001 -0.461475 3.841596 -39.722679 6.450750 5.820353 -95.892878 2.182896 4.561572 -51.127733 -0.000001 0.000000 -0.000002 0.469728 4.966827 -39.799434 8.181041 5.368613 -113.502998 3.200491 5.218118 -63.022975 -0.000000 -0.000001 -0.000001 -3.762435 9.063687 -45.253821 5.342537 5.828998 -85.005304 8.716829 5.103324 -119.369194 -0.000000 -0.000000 -0.000001 2.844845 14.234611 -6.010197 0.000000 0.000000 0.000000 -45.524024 21.500542 84.730225 0.000017 114.409746 -0.000024 1.034095 19.977805 8.075917 -7.341104 13.749653 7.412324 9.855803 -44.489083 -3.903248 -0.115778 -14.513080 -28.973867 0.000001 -0.000003 -0.000000 -0.124381 -2.384790 45.108868 4.500589 -4.654541 88.071164 1.723219 -3.618379 50.920105 0.000000 -0.000002 0.000004 -0.761624 -2.932900 39.031058 5.133885 -4.632759 95.881663 1.739744 -3.631701 51.181353 0.000001 0.000000 0.000002 0.154763 -4.068813 39.122661 6.509724 -4.273596 113.462891 2.549579 -4.153929 63.067324 0.000001 0.000001 -0.000001 -4.198872 -8.025510 44.637783 4.252921 -4.639634 85.014839 6.935960 -4.062626 119.322257 0.000002 0.000000 -0.000000 -47.066786 -5.436367 34.827538 48.992558 -9.487320 5.190602 6.605364 -9.750396 -31.820250 1.125016 -0.000014 -0.000008 -0.000000 -0.000002 0.000000 -20.075949 -3.244657 -45.377478 74.582210 16.837787 -7.305847 -20.355586 -15.660551 20.710751 -13.386186 -0.011833 1.183998 -0.000000 0.000000 -0.000001 
8.285846 62.333168 49.363602 -12.937307 -42.953823 -6.303524 19.460589 8.187817 -8.349607 1.352511 1.057881 -0.608382 0.000000 0.000000 0.000000 1.352143 1.065418 -0.615880 5.139181 13.011480 -0.052976 2.198360 19.765676 -6.130644 -0.000001 0.000000 -0.000000 0.720597 3.654632 -7.622854 0.000000 0.000000 0.000000 -53.440821 2.217213 -44.400297 0.000005 -114.716879 -0.000007 -8.688872 -9.634159 -11.046167 -6.141220 -11.690800 -6.761693 9.914113 42.595529 3.409863 -0.422808 8.108086 27.509115 0.000001 0.000006 -0.000003 0.255307 3.378219 -45.814341 5.654087 5.847761 -88.067441 2.162141 4.544811 -50.866376 0.000000 -0.000000 -0.000004 -0.461474 3.841596 -39.722683 6.450749 5.820356 -95.892885 2.182896 4.561571 -51.127733 0.000000 -0.000001 -0.000003 0.469729 4.966826 -39.799437 8.181038 5.368614 -113.502991 3.200490 5.218115 -63.022975 -0.000000 -0.000000 0.000000 -3.762435 9.063686 -45.253821 5.342535 5.828999 -85.005304 8.716828 5.103321 -119.369194 -0.000001 0.000000 -0.000000 2.810629 14.537267 -6.138983 0.000000 0.000000 0.000000 -46.080179 20.947437 84.878815 0.000059 114.352263 -0.000054 0.145100 19.111351 8.651123 -7.341107 13.749654 7.412321 9.855802 -44.489076 -3.903247 -0.115778 -14.513080 -28.973874 -0.000003 -0.000003 -0.000001 -0.124380 -2.384788 45.108868 4.500593 -4.654542 88.071164 1.723222 -3.618376 50.920102 0.000001 -0.000002 0.000002 -0.761623 -2.932900 39.031055 5.133888 -4.632758 95.881663 1.739741 -3.631703 51.181357 0.000001 -0.000002 0.000001 0.154764 -4.068815 39.122661 6.509725 -4.273599 113.462891 2.549580 -4.153929 63.067330 0.000001 -0.000001 -0.000002 -4.198872 -8.025508 44.637779 4.252922 -4.639634 85.014839 6.935964 -4.062625 119.322271 0.000001 0.000000 -0.000001 -46.746966 -4.535060 34.373733 45.256871 -9.400694 5.340383 8.670213 -10.459176 -32.433669 1.022287 -0.000010 0.000000 0.000000 0.000002 -0.000000 -18.593918 -5.073923 -44.387087 72.086076 16.355965 -6.165562 -25.118642 -17.267138 20.573320 -12.268524 -0.000018 -0.000012 0.000000 0.000001 0.000000 
7.816688 63.155724 47.533142 -11.651673 -42.422722 -4.897691 17.747272 8.525288 -7.396961 1.638935 1.089199 -0.969849 0.000000 0.000000 0.000000 1.644423 1.086868 -0.970827 5.394265 12.949658 -0.475063 2.388287 19.167883 -5.962651 -0.000000 -0.000000 0.000000 0.718279 3.843465 -7.721462 0.000000 0.000000 0.000000 -53.487379 1.962358 -44.508771 -0.000034 -114.724502 -0.000036 -8.343829 -8.919355 -11.544605 -6.141222 -11.690799 -6.761685 9.914113 42.595519 3.409859 -0.422806 8.108091 27.509108 0.000001 -0.000003 -0.000000 0.255305 3.378219 -45.814337 5.654088 5.847760 -88.067441 2.162140 4.544811 -50.866372 -0.000000 0.000000 0.000000 -0.461475 3.841595 -39.722673 6.450753 5.820354 -95.892878 2.182897 4.561571 -51.127736 0.000000 -0.000002 -0.000000 0.469726 4.966829 -39.799430 8.181036 5.368614 -113.502991 3.200491 5.218116 -63.022975 -0.000001 -0.000000 0.000001 -3.762437 9.063686 -45.253818 5.342536 5.828997 -85.005304 8.716831 5.103324 -119.369194 -0.000002 -0.000000 -0.000001 2.691445 14.753632 -6.327799 0.000000 0.000000 0.000000 -46.723053 20.456837 84.821565 0.000011 114.332244 -0.000033 -0.808705 18.412559 9.158097 -7.341105 13.749657 7.412321 9.855808 -44.489083 -3.903237 -0.115778 -14.513075 -28.973871 0.000003 -0.000004 0.000002 -0.124379 -2.384788 45.108864 4.500593 -4.654541 88.071164 1.723221 -3.618377 50.920105 0.000001 -0.000001 0.000001 -0.761622 -2.932902 39.031058 5.133888 -4.632759 95.881663 1.739743 -3.631701 51.181353 0.000000 0.000000 0.000004 0.154765 -4.068814 39.122664 6.509727 -4.273596 113.462884 2.549581 -4.153929 63.067330 -0.000000 -0.000001 -0.000001 -4.198871 -8.025510 44.637779 4.252922 -4.639633 85.014839 6.935958 -4.062626 119.322257 -0.000000 0.000000 0.000000 -46.705523 -3.963122 33.778205 42.224038 -9.128468 5.257327 9.662524 -10.945145 -32.854661 2.850680 -0.000006 0.000002 0.000000 -0.000000 0.000000 -17.598411 -6.505092 -43.526180 69.746770 15.367914 -4.645813 -29.094564 -17.887731 20.007333 -10.879043 0.000020 0.000003 -0.000000 -0.000001 -0.000000 
7.421944 63.947250 45.721703 -10.306764 -41.745867 -3.482362 16.259622 8.647983 -6.583678 1.874573 1.097754 -1.317246 0.000000 0.000000 0.000000 1.886066 1.087211 -1.312155 5.491041 12.883360 -0.792212 2.478767 18.552085 -5.750200 0.000002 0.000000 -0.000000 0.717234 3.924100 -7.764513 0.000000 0.000000 0.000000 -54.024450 1.701610 -44.671162 -0.000036 -114.519548 -0.000037 -7.856698 -8.458360 -12.064920 -6.141224 -11.690799 -6.761688 9.914117 42.595519 3.409863 -0.422809 8.108088 27.509115 0.000001 -0.000004 0.000003 0.255306 3.378220 -45.814337 5.654092 5.847762 -88.067441 2.162139 4.544808 -50.866379 -0.000002 0.000001 -0.000002 -0.461473 3.841596 -39.722676 6.450750 5.820353 -95.892878 2.182899 4.561572 -51.127733 0.000001 -0.000002 -0.000002 0.469728 4.966830 -39.799434 8.181039 5.368615 -113.502998 3.200490 5.218116 -63.022975 0.000000 0.000000 0.000002 -3.762436 9.063688 -45.253821 5.342536 5.828997 -85.005304 8.716830 5.103322 -119.369194 -0.000000 -0.000000 -0.000001 2.470817 14.861045 -6.589037 0.000000 0.000000 0.000000 -47.485811 20.109962 84.599816 -0.000053 114.337380 0.000043 -1.709101 17.916923 9.575133 -7.341104 13.749653 7.412319 9.855803 -44.489083 -3.903246 -0.115778 -14.513076 -28.973871 0.000002 -0.000001 -0.000001 -0.124378 -2.384788 45.108868 4.500590 -4.654543 88.071164 1.723221 -3.618375 50.920105 0.000001 -0.000000 0.000001 -0.761622 -2.932901 39.031058 5.133888 -4.632759 95.881663 1.739741 -3.631701 51.181350 0.000000 0.000001 0.000001 0.154765 -4.068815 39.122668 6.509727 -4.273597 113.462884 2.549580 -4.153930 63.067330 -0.000000 0.000000 -0.000002 -4.198872 -8.025510 44.637776 4.252921 -4.639634 85.014839 6.935960 -4.062625 119.322257 0.000000 0.000001 0.000001 -47.073848 -3.663808 32.925767 40.495065 -9.211325 4.721428 9.450007 -10.521674 -32.701238 1.921893 -0.000005 0.000016 -0.000000 -0.000003 -0.000000 -17.152075 -7.495340 -42.830791 67.621441 13.715060 -2.798042 -32.744234 -17.843589 18.337639 -6.023794 -0.000009 0.000003 0.000000 -0.000002 -0.000001 
